<svg width="120" height="120" viewBox="0 0 120 120" fill="none" xmlns="http://www.w3.org/2000/svg">
<rect width="120" height="120" rx="12" fill="#96ABF4"/>
<path fill-rule="evenodd" clip-rule="evenodd" d="M51.4164 21.1872C50.8081 22.3675 45.3129 32.9274 39.2041 44.6536C33.095 56.3799 28.148 66.0563 28.2105 66.1567C28.2728 66.2571 28.4098 66.2869 28.5149 66.2221C28.62 66.1573 30.4396 62.7736 32.5583 58.7024C34.6774 54.6311 40.0288 44.3492 44.4506 35.8541C48.8729 27.359 52.5603 20.4897 52.646 20.589C52.7316 20.6883 54.624 24.7024 56.8525 29.5092C59.0799 34.316 61.6944 39.9531 62.6617 42.0359C63.6291 44.1189 64.5025 45.823 64.6022 45.823C64.7026 45.823 64.8545 45.2201 64.9401 44.483C65.3021 41.3696 66.1468 39.0677 67.7447 36.8383C71.9155 31.0206 79.569 29.0065 85.9026 32.06C89.6329 33.8587 92.414 37.0909 93.6324 41.0431C93.9292 42.0059 94.3011 42.7933 94.4595 42.7933C94.9065 42.7933 94.2671 40.6807 93.1244 38.3804C91.7382 35.5914 89.1202 32.981 86.3596 31.6356C81.9084 29.4663 77.3645 29.4733 72.8658 31.6561C69.1039 33.4814 65.9286 37.4226 64.9255 41.5115C64.7049 42.4088 64.4573 43.3333 64.3746 43.5661C64.2714 43.8565 62.4289 40.1202 58.5138 31.6803C55.3731 24.9103 52.7404 19.2969 52.663 19.2063C52.585 19.1156 52.0247 20.0071 51.4164 21.1872ZM30.3026 31.1594C29.0949 31.4528 27.9476 32.1765 27.3369 33.0302C26.9632 33.5527 26.7246 33.6843 26.3605 33.5695C22.9863 32.5035 20.1515 36.4556 22.3904 39.1043C23.3321 40.2181 24.0795 40.401 28.4374 40.5842C33.1322 40.7816 34.1993 40.5637 35.6099 39.1183C36.6587 38.0439 36.9549 37.2902 36.9549 35.6963C36.9549 32.6692 33.5755 30.3643 30.3026 31.1594ZM33.6226 31.9675C35.24 32.6401 36.4866 34.3237 36.4866 35.8352C36.4866 37.6736 34.8398 39.5457 32.8136 40.0111C31.5305 40.3059 24.4277 39.8356 23.5812 39.3998C22.3604 38.7715 21.832 36.8963 22.5032 35.5756C22.9025 34.7904 24.2338 33.9372 25.0599 33.9372C25.4336 33.9372 26.0468 34.0955 26.4228 34.2892C27.0845 34.6296 27.1173 34.6203 27.4425 33.9978C28.5046 31.9658 31.3617 31.0271 33.6226 31.9675ZM78.2814 38.9102C76.0775 39.6373 74.3441 41.154 73.446 43.1429C72.6535 44.8959 72.6845 47.5875 73.5169 49.3552C74.2514 50.9148 75.6592 52.3472 77.1827 53.085C79.4306 54.1741 82.9854 53.8268 84.7611 52.3448C85.8768 51.4138 85.4116 51.2259 84.0853 52.0717C81.1745 53.9301 77.4384 53.3996 75.1419 50.8021C73.8801 49.375 73.3943 47.846 73.5328 45.7347C73.7111 43.0145 74.9043 41.189 77.2748 40.0102C79.1783 39.0633 81.4256 39.0099 83.1984 39.8697C83.8424 40.1819 84.5352 40.5742 84.7388 40.7413C85.4791 41.3512 86.7907 43.2594 86.9433 43.9495C87.0964 44.6464 87.3803 44.8547 87.629 44.4536C87.8678 44.0698 86.3437 41.4351 85.3846 40.5725C84.8579 40.0988 83.941 39.4974 83.3479 39.2362C82.0169 38.6501 79.5514 38.4913 78.2814 38.9102ZM47.8806 41.0853C47.7965 41.1689 48.2013 42.1238 48.7802 43.207C49.3592 44.2902 49.8326 45.2807 49.8326 45.408C49.8326 45.5352 48.0782 48.8007 45.9334 52.6647C36.8919 68.9543 36.2511 70.1527 36.4655 70.3663C36.5999 70.5 41.2852 70.4824 48.7022 70.3202C55.3121 70.1754 61.3266 70.0575 62.0669 70.0587C62.8078 70.0598 63.4132 69.9775 63.4132 69.8766C63.4132 69.7114 62.4723 67.8891 58.3942 60.1558C52.2353 48.4785 50.7694 45.6408 50.7694 45.3945C50.7694 45.2379 51.1912 44.3692 51.7062 43.4645C52.6776 41.7576 52.8014 41.395 52.4131 41.395C52.2864 41.395 51.786 42.1273 51.3009 43.0224C50.8152 43.9176 50.3594 44.6517 50.2878 44.6538C50.2162 44.6559 49.7974 43.9171 49.3574 43.0117C48.5368 41.3232 48.1494 40.8177 47.8806 41.0853ZM89.0803 44.8987C88.198 45.1616 87.3152 45.9869 86.9145 46.9226C85.9044 49.2828 87.649 51.8825 90.2435 51.8825C93.8811 51.8825 94.9763 46.6049 91.6502 45.1015C90.6072 44.63 90.1133 44.5911 89.0803 44.8987ZM91.5036 45.655C92.3107 46.0615 93.1496 47.3843 93.1496 48.2498C93.1496 50.0544 91.3868 51.6199 89.708 51.3064C89.2011 51.2119 88.5336 50.8307 88.0737 50.3725C87.4026 49.7048 87.297 49.4433 87.304 48.468C87.3087 47.8467 87.4477 47.0955 87.6126 46.7995C88.313 45.5436 90.1878 44.9922 91.5036 45.655ZM49.9851 52.7406C49.9329 52.7931 49.1509 52.8054 48.2489 52.7674L46.6082 52.698L48.2791 49.6686L49.9499 46.6387L50.0156 49.6418C50.052 51.2936 50.0385 52.688 49.9851 52.7406ZM52.9029 51.0088L53.8186 52.8147H52.1421H50.4661L50.6163 50.892C50.699 49.8344 50.7682 48.5497 50.7706 48.0371L50.7753 47.1049L51.3812 48.1536C51.7144 48.7306 52.399 50.0153 52.9029 51.0088ZM66.0811 54.0043C64.3846 55.9777 64.1629 56.3104 64.5448 56.3104C64.6732 56.3104 65.3601 55.6707 66.0711 54.8891L67.364 53.4673L67.523 54.3107C67.696 55.2294 67.6843 55.2487 65.4288 57.8152C63.7522 59.7227 64.3729 59.7414 66.1315 57.8362L67.628 56.2159L67.6227 57.1369C67.618 57.9453 67.4168 58.281 65.9837 59.8733C64.4597 61.5671 64.0966 62.131 64.5254 62.1409C64.6222 62.1432 65.3554 61.4352 66.1556 60.5679L67.6092 58.9907L67.6186 60.1587C67.6274 61.2776 67.5588 61.406 65.989 63.1857C65.0874 64.2078 64.35 65.1242 64.35 65.2216C64.35 65.6874 64.9032 65.2701 66.1491 63.864L67.5106 62.3283L67.669 63.3398C67.7564 63.8955 67.835 65.0127 67.8444 65.8211C67.8556 66.7381 67.95 67.2371 68.0961 67.1478C68.2257 67.0678 68.3301 66.0114 68.3301 64.7815V62.5594L69.9955 64.0939C70.9112 64.938 71.7753 65.5578 71.9149 65.4715C72.0651 65.3792 71.3811 64.5796 70.2501 63.5237L68.3301 61.7323V60.5153V59.2983L70.0865 60.8626C72.4405 62.9598 72.3461 62.225 69.9691 59.9515C68.3343 58.3872 68.0961 58.0568 68.0961 57.3517C68.0961 56.907 68.1665 56.5433 68.2533 56.5433C68.3389 56.5433 69.1273 57.2332 70.0037 58.0755C71.0098 59.0421 71.7032 59.5423 71.8832 59.4314C72.0745 59.3141 71.4967 58.6358 70.1304 57.3751C68.0984 55.5014 68.0914 55.4909 68.0937 54.3486L68.0961 53.2023L69.8459 54.8903C70.8174 55.8283 71.709 56.5089 71.851 56.4219C72.1689 56.2264 71.8258 55.8365 69.4764 53.7264L67.6954 52.1271L66.0811 54.0043ZM49.8326 56.3682L49.7159 59.2236L46.5736 59.289C44.8453 59.3246 43.3529 59.2727 43.2572 59.1723C43.1611 59.0725 43.7702 57.758 44.6103 56.2521L46.1378 53.514L48.044 53.5134L49.9499 53.5128L49.8326 56.3682ZM55.6242 56.1359C56.3651 57.5776 57.0039 58.8798 57.0444 59.0287C57.0983 59.2271 56.236 59.2902 53.8462 59.2621C52.0465 59.2411 50.5389 59.1711 50.496 59.1069C50.4532 59.0433 50.4509 57.758 50.4908 56.2521L50.5635 53.514H52.4207H54.2779L55.6242 56.1359ZM76.1455 55.4454C74.8685 56.834 74.6057 57.2122 74.7535 57.4504C74.8356 57.5823 75.2557 57.3068 75.7068 56.8241C76.4723 56.004 76.5128 55.9888 76.5192 56.5176C76.5227 56.8492 76.1467 57.4831 75.5889 58.0854C74.679 59.0678 74.4321 59.5733 74.862 59.5733C74.9776 59.5733 75.3959 59.2061 75.7918 58.7578C76.1872 58.309 76.5673 57.9418 76.6354 57.9418C77.0149 57.9418 76.6336 58.6755 75.7062 59.7314C74.7459 60.8235 74.4186 61.4376 74.7958 61.4376C74.8749 61.4376 75.3448 60.9916 75.8399 60.447L76.7404 59.4565L76.7497 60.1079C76.7568 60.5655 76.4471 61.0914 75.7062 61.88C74.6984 62.9522 74.4033 63.5354 74.8679 63.5354C74.987 63.5354 75.461 63.097 75.922 62.5612L76.7597 61.587V63.1437C76.7597 64.3484 76.8366 64.7004 77.0988 64.7004C77.3463 64.7004 77.4578 64.3502 77.5088 63.4128L77.5792 62.1252L78.4691 62.8571C79.8294 63.9755 79.8124 63.4449 78.4433 62.0656C77.7141 61.3302 77.2278 60.6338 77.2278 60.3233C77.2278 59.6176 77.4179 59.669 78.4263 60.649C78.9489 61.1568 79.4047 61.4224 79.5743 61.3179C79.7626 61.2023 79.4106 60.7482 78.5137 59.9497C77.6203 59.1548 77.2003 58.6137 77.2583 58.3329C77.3323 57.971 77.4889 58.0341 78.3512 58.7695C79.8066 60.0116 79.8717 59.5429 78.4433 58.1035C77.6508 57.3044 77.2278 56.6817 77.2278 56.3128C77.2278 55.781 77.2894 55.8079 78.2597 56.7552C78.8299 57.3126 79.4077 57.692 79.5514 57.6033C79.901 57.3879 79.7901 57.2461 78.2028 55.8773L76.8342 54.6971L76.1455 55.4454ZM85.9196 58.424C84.9981 59.4583 84.3153 60.4184 84.4021 60.5585C84.4959 60.7097 85.1594 60.1587 86.0358 59.2026L87.5117 57.5922L87.5211 58.6195C87.5293 59.5692 87.4061 59.784 85.8868 61.458C84.8626 62.5874 84.3422 63.3299 84.5047 63.4297C84.7863 63.6031 84.8303 63.5645 86.4488 61.7212L87.5305 60.4897V61.3745C87.5305 62.1374 87.3052 62.5145 85.9032 64.1044C85.008 65.1189 84.3422 66.0557 84.4232 66.1859C84.5041 66.3161 85.2356 65.695 86.0481 64.8043L87.5263 63.1857L87.5223 64.3508C87.5187 65.4569 87.4366 65.6104 85.8991 67.3667C85.008 68.3841 84.3452 69.3226 84.4255 69.4522C84.5059 69.5818 85.2902 68.9065 86.1678 67.9516L87.7639 66.2151V68.7401C87.7645 70.657 87.8349 71.2412 88.0572 71.1659C88.2713 71.0936 88.3265 70.4947 88.2637 68.9327C88.2168 67.7589 88.2526 66.7982 88.3429 66.7982C88.4332 66.7982 89.1765 67.4373 89.9942 68.2189C90.9029 69.0874 91.5892 69.5736 91.7593 69.4692C91.9412 69.3577 91.3716 68.6829 90.1151 67.5237L88.1927 65.7493L88.2713 64.5842L88.35 63.4186L89.935 64.917C90.9674 65.8929 91.6004 66.3359 91.7494 66.1876C91.8984 66.0394 91.3252 65.3681 90.1057 64.2626C88.3546 62.6762 88.2326 62.5046 88.2326 61.6238V60.6823L89.8833 62.232C90.8208 63.1122 91.6467 63.7122 91.7951 63.6206C91.9553 63.5225 91.2654 62.7182 90.0277 61.559C88.1059 59.7583 87.9986 59.6059 87.9986 58.6831C87.9986 58.1473 88.0748 57.7089 88.1681 57.7089C88.262 57.7089 89.0504 58.4129 89.9215 59.2732C91.0366 60.3747 91.5787 60.764 91.7535 60.5906C91.9283 60.4161 91.3827 59.7811 89.9109 58.4432C88.7606 57.3984 87.7692 56.5433 87.7076 56.5433C87.646 56.5433 86.8412 57.3897 85.9196 58.424ZM49.659 64.642C49.5762 67.7858 49.4413 69.538 49.2724 69.6495C49.1298 69.7435 46.6822 69.8223 43.8329 69.824C40.9836 69.8258 38.3125 69.8952 37.8971 69.9781C37.2984 70.0972 37.1586 70.0563 37.2239 69.7808C37.2691 69.5894 38.5084 67.2669 39.9782 64.6199L42.6503 59.8061H46.2179H49.7857L49.659 64.642ZM60.0419 64.5562C61.39 67.1052 62.4306 69.252 62.3549 69.3273C62.2793 69.4026 59.4665 69.5065 56.1052 69.5579L49.9933 69.6513L50.1458 67.7C50.2297 66.6272 50.2989 64.4091 50.2995 62.7719L50.3013 59.7945L53.9465 59.8587L57.5911 59.9229L60.0419 64.5562ZM79.569 66.0312C78.3248 66.6196 74.8726 70.1982 73.7017 72.1127C73.1298 73.0483 72.3783 74.2747 72.0316 74.8391C70.3346 77.5994 69.298 80.7916 69.0998 83.8618C68.993 85.5172 69.0405 86.0022 69.3573 86.4837C69.5708 86.8083 69.8336 87.0739 69.941 87.0739C70.0477 87.0739 70.7828 86.2608 71.5729 85.2673C72.3637 84.2745 73.4383 83.11 73.9616 82.6798L74.9131 81.8977L74.5552 82.7505C73.9411 84.2132 73.4864 87.1118 73.714 88.1152C73.9282 89.0607 74.5981 90.1242 75.0803 90.2842C75.5906 90.454 76.6623 89.0123 78.5096 85.6712C79.6822 83.5507 80.4114 82.4586 80.5568 82.6034C80.7029 82.7487 80.6923 82.9979 80.5275 83.3044C79.9444 84.3889 80.3891 85.4074 81.6045 85.7757C82.2709 85.9777 83.836 84.6113 84.4021 83.3336C84.6584 82.7557 85.0315 82.3506 85.4357 82.21L86.068 81.9905L85.7114 83.1001C85.5119 83.7217 85.4228 84.4776 85.509 84.8196C85.6826 85.5084 86.3795 85.9759 86.9221 85.7681C87.1216 85.6923 88.4045 84.2313 89.7731 82.5222C92.3371 79.3195 93.4212 78.3249 92.2069 80.289C91.4238 81.5562 90.8084 83.1544 90.8084 83.9208C90.8084 84.205 91.029 84.6369 91.2988 84.8798C91.7869 85.3199 91.7975 85.3129 93.7696 83.2262C94.859 82.074 95.6392 81.3601 95.5037 81.6397C95.0825 82.5094 95.2051 84.149 95.7424 84.8284C96.6305 85.952 97.6207 85.6321 99.8815 83.4912C100.803 82.618 100.876 82.5882 100.876 83.0867C100.876 84.6445 102.464 86.1475 103.766 85.8218C104.539 85.6292 109.795 81.7068 110.203 81.0192C110.716 80.1542 110.152 79.8624 109.366 80.5855C108.464 81.4138 105.308 83.6873 104.435 84.1367C103.432 84.6533 102.28 84.6346 102.285 84.1023C102.293 83.0312 102.553 82.6991 103.504 82.5479C105.419 82.2432 106.713 80.0725 105.586 79.0569C104.499 78.0774 103.403 78.5543 101.169 80.979C99.3371 82.967 97.4013 84.5103 96.7391 84.5103C96.1847 84.5103 96.407 83.556 97.3644 81.83C98.3575 80.0392 98.5218 79.1567 97.951 78.6845C97.4659 78.2841 96.7619 78.7679 94.4372 81.1004C93.4071 82.1335 92.7542 82.6898 92.9865 82.336C94.8895 79.4345 95.4585 78.0278 95.0707 77.1803C94.9212 76.8534 94.6425 76.5861 94.4513 76.5861C93.9104 76.5861 91.1463 79.2734 89.2375 81.6555C88.2872 82.8409 87.4542 83.811 87.3867 83.811C87.3193 83.811 87.7598 82.8754 88.3658 81.7313C89.5296 79.5349 89.5795 78.9168 88.5946 78.9168C88.1675 78.9168 87.8367 79.1707 87.392 79.839C87.0013 80.4268 86.4845 80.8576 85.9683 81.0274C85.5219 81.1739 85.1347 81.2574 85.1078 81.2124C85.0802 81.1675 84.8772 80.735 84.6561 80.2517C84.2466 79.3551 83.7832 79.0691 82.2891 78.7901C81.5382 78.65 81.3576 78.7218 80.6255 79.4503C80.0324 80.041 79.8036 80.4735 79.8036 81.0052C79.8036 81.8959 76.5949 87.7749 75.5378 88.8214L74.8315 89.5207L74.9711 88.2377C75.048 87.5321 75.4357 85.8049 75.8323 84.3988C76.6588 81.4687 76.5743 80.7811 75.3882 80.7811C74.8345 80.7811 74.2942 81.2118 72.4487 83.1264C69.9433 85.7244 69.9897 85.7635 71.1693 82.0424L71.8404 79.9242L73.5386 79.246C79.481 76.8739 84.1598 71.3883 83.4506 67.6264C83.1197 65.8713 81.4004 65.165 79.569 66.0312ZM32.3656 66.5303C30.2949 68.0374 27.65 71.3008 25.0802 75.5191C24.142 77.0589 23.3745 78.263 23.3745 78.1942C23.3745 78.1259 24.1069 76.603 25.0021 74.8105C27.1859 70.4369 27.41 69.2923 26.313 68.1144C25.5323 67.2762 24.9503 67.5132 23.0226 69.4569C20.0323 72.4711 17.7714 75.7847 14.5416 81.8883C13.7109 83.4585 12.9892 84.7432 12.938 84.7432C12.6905 84.7432 14.0923 81.7156 17.0648 75.8296C19.7663 70.4807 20.3306 69.1884 20.3306 68.3496C20.3306 66.3242 18.9194 66.0155 16.562 67.5255C13.0325 69.7861 9.95094 74.0476 9.63394 77.1067C9.48219 78.5695 9.85498 79.8489 10.4328 79.8489C10.6822 79.8489 10.7257 79.7334 10.5864 79.4415C10.2928 78.8257 10.4192 77.0653 10.8412 75.8915C11.3846 74.3792 13.1918 71.8308 14.6154 70.5694C15.879 69.4499 18.3905 67.8191 18.5722 68C18.6937 68.1208 18.6146 68.2667 16.0102 72.7407C12.2903 79.131 10.9101 82.3734 10.6035 85.4424C10.4685 86.7949 10.5122 87.0447 11.0105 87.7731C11.3177 88.2214 11.7227 88.5885 11.9107 88.5885C12.1114 88.5885 12.8174 87.4819 13.6198 85.9082C17.6267 78.0541 19.5722 74.9132 22.1454 72.1471C25.191 68.8726 25.2711 69.0682 22.8357 73.8293C20.2698 78.8473 19.18 81.694 18.9929 83.8717C18.8798 85.1862 18.9271 85.5242 19.2791 85.9106C20.1239 86.8398 20.2915 86.6554 22.4585 82.4125C24.3232 78.7621 26.4387 75.4257 28.8879 72.275C30.3611 70.3791 32.6771 68.0555 32.8859 68.2633C32.9491 68.3263 31.7105 70.6149 30.1335 73.349C28.5568 76.083 26.9775 79.0043 26.6242 79.8419C25.5726 82.3331 24.807 85.2989 24.6372 87.5379C24.4823 89.5831 24.4572 89.6532 23.7302 90.1009C22.5971 90.7978 20.6015 93.0024 20.0918 94.1202C19.5134 95.3885 19.4886 97.404 20.0384 98.4768C21.5817 101.489 25.689 101.586 28.8781 98.6846C30.3691 97.3287 32.2739 94.5755 33.6867 91.7346C34.2285 90.6455 34.6985 89.7232 34.7307 89.6859C34.7631 89.6479 35.1716 89.7985 35.6388 90.0203C36.2092 90.2912 36.58 90.677 36.7685 91.1959C36.9228 91.6202 37.1858 91.9681 37.3532 91.9681C38.1664 91.9681 37.0804 90.1353 35.8919 89.502C34.9108 88.9796 34.8946 89.1681 36.2337 85.4827C37.6131 81.6864 38.0177 79.9604 37.6941 79.2536C37.5506 78.9401 37.2844 78.6839 37.1024 78.6839C36.9203 78.6839 36.0317 79.5489 35.1274 80.6066C33.0964 82.9816 32.0936 83.9441 31.8756 83.727C31.7836 83.6353 32.249 82.5158 32.91 81.2393C33.9787 79.1748 34.073 78.8783 33.7607 78.5677C33.2432 78.0523 32.8506 78.1364 32.2043 78.901C30.6545 80.7344 30.0511 83.4836 30.9756 84.5004C31.2134 84.7619 31.5738 84.9761 31.7763 84.9761C31.9788 84.9761 32.9779 84.1636 33.9967 83.1701C35.0152 82.1767 35.794 81.5212 35.727 81.7132C35.4543 82.4983 33.1112 87.6774 32.9086 87.9436C32.7492 88.1531 32.1329 88.191 30.6283 88.0848C29.0167 87.971 28.3007 88.0259 27.3495 88.3352C26.6802 88.5535 26.0686 88.6679 25.9901 88.5897C25.7923 88.3924 26.4844 85.8615 27.3405 83.6517C27.7342 82.6355 29.0724 80.0795 30.3143 77.9718C34.3786 71.0726 35.4493 68.3578 34.7563 66.7071C34.3125 65.6495 33.6434 65.6004 32.3656 66.5303ZM72.5449 66.0843C71.252 66.4789 69.0006 67.7799 67.3658 69.0775C64.3477 71.4718 62.2681 73.9087 58.5033 79.4637C57.0449 81.6158 56.6373 82.057 55.765 82.4294C54.7067 82.8806 54.1231 83.7252 54.5695 84.1607C54.729 84.3165 54.844 84.2961 54.9167 84.0999C54.976 83.9383 55.2405 83.6908 55.5033 83.5507C56.1721 83.1946 52.785 88.0568 51.6599 89.0683C51.1695 89.5096 50.5342 89.8703 50.2485 89.8703C49.7816 89.8703 49.8214 89.7822 50.6398 88.9965C52.8706 86.8538 54.9924 82.4907 54.6604 80.7291C54.5759 80.2803 54.3043 79.731 54.0573 79.5086C53.1598 78.7002 51.3249 79.881 49.9071 82.1796C49.2184 83.2962 48.6623 85.5714 48.6623 87.2729V88.6866L47.6949 88.9749C46.7901 89.2446 46.6996 89.2288 46.29 88.7257C45.7409 88.0504 45.6967 85.8621 46.2118 84.878C46.6291 84.0819 46.3352 83.5484 45.747 84.0346C44.8432 84.7811 44.7245 87.5671 45.538 88.9376C46.0514 89.8026 46.7663 90.1038 48.3081 90.1038C49.0025 90.1038 49.6314 90.2001 49.7047 90.3186C49.778 90.4371 50.1447 90.6005 50.5189 90.6828C52.0506 91.0173 54.1893 89.1296 56.9311 85.021L58.3789 82.852L59.9012 82.9804C60.7382 83.0511 61.9208 83.1094 62.5292 83.11L63.6355 83.1118L62.9445 84.9767C62.5649 86.0022 62.1314 87.5029 61.9819 88.3113C61.7466 89.582 61.763 89.8937 62.1045 90.6093C62.5004 91.4405 63.2818 91.9827 63.8168 91.7988C64.0303 91.7253 64.0068 91.5531 63.727 91.1282C63.1709 90.283 63.4507 88.6171 64.702 85.3257C66.0999 81.6479 69.3362 75.1397 71.0778 72.502C72.8547 69.8118 75.021 67.4811 75.3231 67.9346C75.4404 68.1115 75.654 68.1839 75.7965 68.0957C76.6688 67.5593 75.1812 65.8508 73.873 65.8859C73.4647 65.897 72.867 65.9863 72.5449 66.0843ZM82.6135 67.3813C82.9549 68.4109 82.7719 69.2841 81.7782 71.3679C80.8361 73.3437 79.0475 75.2454 76.7257 76.7408C75.3495 77.6268 72.7954 78.9168 72.4176 78.9168C72.2463 78.9168 73.6407 76.2365 74.8415 74.2578C76.9879 70.72 79.2722 67.9551 80.8273 67.0112C81.9002 66.3598 82.3026 66.4433 82.6135 67.3813ZM70.6748 69.7067C69.4564 71.3089 66.7803 76.1728 65.095 79.846C64.5371 81.0624 63.9593 82.1317 63.8103 82.2234C63.5522 82.3821 60.1147 82.2421 59.4829 82.0477C58.8329 81.8469 64.5448 74.2151 67.2596 71.6562C68.4187 70.563 71.499 68.1961 71.7618 68.1961C71.7958 68.1961 71.3066 68.8761 70.6748 69.7067ZM53.5763 80.4898C53.5705 81.8475 51.4945 85.8026 49.9065 87.4819L49.3011 88.1227L49.4243 86.6075C49.6079 84.3533 50.384 82.5584 51.8083 81.0945C53.1698 79.6954 53.5804 79.5547 53.5763 80.4898ZM83.5896 80.2348C83.8254 80.4466 84.0178 80.8535 84.0178 81.1377C84.0178 81.6817 83.3186 81.9467 81.8814 81.9467C80.8273 81.9467 81.0713 81.0951 82.3724 80.2324C83.0828 79.762 83.0652 79.762 83.5896 80.2348ZM105.325 80.1052C105.325 80.4665 104.026 81.6315 103.459 81.7792C102.739 81.9666 102.885 81.6239 103.921 80.6918C104.875 79.8338 105.325 79.6458 105.325 80.1052ZM83.1937 83.5198C82.7672 84.1852 81.6902 85.1862 81.384 85.2008C81.0754 85.2154 81.1957 84.1659 81.5617 83.6458C81.8791 83.1946 82.3202 83.0061 83.284 82.9104C83.528 82.8865 83.5069 83.0301 83.1937 83.5198ZM32.2453 89.0677C32.6351 89.4571 28.6715 95.7393 27.0042 97.3748C25.6185 98.7337 24.5698 99.2421 23.0753 99.28C21.5659 99.3179 20.979 98.6514 20.979 96.8997C20.979 95.2887 21.7549 93.7793 23.4244 92.1426C24.4925 91.0955 24.9491 90.8025 25.5127 90.8025C26.0564 90.8025 26.2013 90.7167 26.1002 90.4552C25.9393 90.0378 26.8075 89.547 28.5795 89.0537C29.7341 88.7321 31.9177 88.7403 32.2453 89.0677ZM79.1021 90.0454C79.1038 91.5414 80.8132 93.1308 82.4223 93.1326C83.6096 93.1337 84.4203 92.7864 85.2192 91.9354L85.8967 91.2134L86.3831 91.8286C87.3985 93.1133 89.1636 93.4898 90.7222 92.7532C91.1651 92.5442 91.6754 92.1619 91.8579 91.9027C92.1834 91.4399 92.2022 91.4445 93.0246 92.1631C94.5176 93.4676 96.3959 93.474 97.7381 92.1788L98.5235 91.4212L99.1054 92.0469C100.665 93.7221 103.413 93.4227 104.624 91.4457C104.88 91.0278 105.089 90.555 105.09 90.3951C105.092 89.8213 104.638 90.1184 104.241 90.9507C103.679 92.128 102.117 92.8314 100.879 92.4625C99.8369 92.1514 99.2943 91.5934 98.886 90.4102C98.4989 89.2895 98.2308 89.2808 98.0513 90.3828C97.8777 91.4457 97.4782 91.9442 96.4622 92.3668C94.9305 93.0042 93.1648 92.1456 92.6451 90.5112C92.2902 89.3952 91.862 89.2896 91.862 90.3174C91.862 91.7276 89.8704 92.9557 88.408 92.4485C87.3498 92.0813 86.3901 91.0867 86.2194 90.1791C86.0375 89.2137 85.7431 89.1833 85.5389 90.109C85.1647 91.8041 83.3385 92.9417 81.8016 92.4368C80.846 92.1228 79.8341 91.012 79.6447 90.0711C79.474 89.2207 79.1009 89.2032 79.1021 90.0454Z" fill="white"/>
</svg>
