<svg width="500" height="400" viewBox="0 0 500 400" fill="none" xmlns="http://www.w3.org/2000/svg">
<rect width="500" height="400" fill="#F7F7F7"/>
<g clip-path="url(#clip0_253_164)">
<path d="M208.047 349.633H58.8428C52.8843 349.633 48.0369 344.775 48.0369 338.803V60.829C48.0369 54.8578 52.8843 50 58.8428 50H208.047C214.005 50 218.853 54.8578 218.853 60.829V338.803C218.853 344.775 214.005 349.633 208.047 349.633ZM58.8428 51.4002C53.6549 51.4002 49.434 55.63 49.434 60.829V338.803C49.434 344.003 53.6549 348.233 58.8428 348.233H208.047C213.235 348.233 217.456 344.003 217.456 338.803V60.829C217.456 55.63 213.235 51.4002 208.047 51.4002H58.8428Z" fill="#3F3D56"/>
<path d="M475.632 191.35C475.042 190.354 472.49 191.421 472.021 190.516C471.554 189.615 473.925 188.242 475.279 185.105C475.523 184.539 477.062 180.974 475.923 179.874C473.763 177.789 463.88 186.394 460.421 183.578C459.662 182.96 459.131 181.726 456.834 179.723C455.92 178.927 455.368 178.567 454.833 178.701C454.074 178.89 454.014 179.908 453.2 181.91C451.979 184.911 451.258 184.73 450.547 187.125C450.019 188.902 450.139 189.936 449.518 190.137C448.639 190.422 447.83 188.536 446.716 188.705C445.579 188.878 444.892 191.073 444.675 192.717C444.268 195.801 445.398 197.837 446.025 199.977C446.705 202.303 447.109 205.84 445.537 210.847L429.975 254.789C433.41 245.772 443.358 221.055 447.539 211.87C448.745 209.219 450.078 206.529 452.814 205.468C455.448 204.446 459.065 205.056 463.677 203.943C464.215 203.813 465.71 203.431 465.898 202.551C466.054 201.822 465.175 201.416 465.31 200.733C465.491 199.818 467.22 199.807 469.344 198.752C470.842 198.007 471.776 197.122 472.578 196.361C472.82 196.131 476.417 192.677 475.632 191.35H475.632V191.35Z" fill="#F2F2F2"/>
<path d="M414.404 214.483C413.746 214.485 413.532 216.048 412.954 216.018C412.378 215.988 412.389 214.425 411.243 212.854C411.037 212.571 409.735 210.785 408.867 211.028C407.223 211.489 408.586 218.833 406.209 219.722C405.687 219.917 404.93 219.822 403.286 220.374C402.632 220.593 402.296 220.761 402.208 221.063C402.082 221.491 402.563 221.814 403.308 222.792C404.426 224.258 404.129 224.561 405.097 225.602C405.815 226.374 406.356 226.613 406.275 226.977C406.161 227.491 405.004 227.345 404.766 227.942C404.522 228.551 405.399 229.522 406.141 230.103C407.534 231.193 408.857 231.225 410.086 231.534C411.422 231.87 413.271 232.692 415.27 234.91L432.3 255.243C428.876 250.952 419.64 238.927 416.348 234.221C415.398 232.862 414.465 231.431 414.735 229.779C414.994 228.189 416.337 226.586 417.122 223.996C417.214 223.694 417.458 222.848 417.081 222.502C416.769 222.215 416.317 222.53 416.021 222.267C415.626 221.914 416.119 221.06 416.215 219.711C416.283 218.759 416.118 218.045 415.977 217.43C415.934 217.245 415.28 214.479 414.404 214.483V214.483H414.404V214.483Z" fill="#F2F2F2"/>
<path d="M427.537 217.437L427.141 213.889L427.322 213.62C428.16 212.376 428.588 211.161 428.593 210.008C428.594 209.825 428.585 209.642 428.577 209.455C428.542 208.715 428.5 207.795 428.978 206.723C429.247 206.125 430.001 204.74 431.134 204.912C431.439 204.954 431.67 205.095 431.845 205.259C431.871 205.218 431.898 205.177 431.926 205.133C432.279 204.593 432.558 204.362 432.828 204.139C433.034 203.968 433.248 203.791 433.583 203.373C433.73 203.19 433.845 203.029 433.941 202.893C434.235 202.484 434.617 201.996 435.293 202.004C436.014 202.039 436.392 202.636 436.642 203.032C437.09 203.738 437.292 204.247 437.426 204.584C437.475 204.708 437.531 204.846 437.559 204.889C437.791 205.232 439.681 204.912 440.393 204.795C441.993 204.528 443.377 204.297 443.947 205.307C444.355 206.03 444.052 206.986 443.018 208.225C442.695 208.61 442.353 208.903 442.048 209.133C442.3 209.284 442.526 209.515 442.618 209.878C442.833 210.738 442.095 211.6 440.426 212.443C440.011 212.654 439.453 212.935 438.671 213.07C438.303 213.133 437.971 213.149 437.687 213.157C437.681 213.322 437.643 213.5 437.543 213.683C437.249 214.223 436.639 214.48 435.719 214.418C434.707 214.365 433.874 214.172 433.139 214.002C432.497 213.855 431.944 213.73 431.51 213.759C430.704 213.824 430.084 214.47 429.355 215.308L427.537 217.437H427.537V217.437Z" fill="#F2F2F2"/>
<path d="M429.377 196.312L426.053 197.596L425.747 197.489C424.334 196.991 423.053 196.885 421.939 197.173C421.762 197.218 421.587 197.273 421.409 197.329C420.703 197.549 419.826 197.824 418.669 197.632C418.024 197.524 416.497 197.144 416.375 196.002C416.339 195.695 416.416 195.436 416.53 195.224C416.484 195.21 416.437 195.195 416.387 195.179C415.777 194.973 415.483 194.761 415.199 194.556C414.981 194.399 414.757 194.237 414.268 194.018C414.054 193.922 413.87 193.852 413.714 193.793C413.245 193.612 412.676 193.365 412.513 192.708C412.364 192 412.845 191.482 413.163 191.139C413.731 190.527 414.171 190.201 414.463 189.986C414.569 189.907 414.689 189.818 414.723 189.78C414.995 189.467 414.207 187.717 413.914 187.056C413.25 185.574 412.676 184.291 413.507 183.482C414.101 182.902 415.101 182.954 416.559 183.642C417.012 183.857 417.382 184.115 417.681 184.352C417.762 184.069 417.928 183.791 418.256 183.611C419.031 183.184 420.05 183.68 421.287 185.085C421.596 185.433 422.009 185.903 422.338 186.627C422.492 186.968 422.591 187.285 422.672 187.558C422.832 187.522 423.014 187.514 423.216 187.565C423.811 187.712 424.214 188.239 424.388 189.146C424.593 190.14 424.618 190.997 424.641 191.753C424.661 192.413 424.681 192.981 424.819 193.394C425.086 194.158 425.867 194.596 426.86 195.089L429.377 196.312L429.377 196.312H429.377V196.312Z" fill="#F2F2F2"/>
<path d="M427.537 185.859L427.141 182.311L427.322 182.042C428.16 180.798 428.588 179.583 428.593 178.43C428.594 178.247 428.585 178.064 428.577 177.877C428.542 177.137 428.5 176.217 428.978 175.144C429.247 174.546 430.001 173.162 431.134 173.333C431.439 173.376 431.67 173.517 431.845 173.681C431.871 173.64 431.898 173.599 431.926 173.554C432.279 173.015 432.558 172.783 432.828 172.561C433.034 172.389 433.248 172.213 433.583 171.795C433.73 171.612 433.845 171.451 433.941 171.315C434.235 170.906 434.617 170.417 435.293 170.426C436.014 170.46 436.392 171.058 436.642 171.454C437.09 172.16 437.292 172.669 437.426 173.006C437.475 173.129 437.531 173.268 437.559 173.311C437.791 173.654 439.681 173.333 440.393 173.217C441.993 172.95 443.377 172.718 443.947 173.729C444.355 174.452 444.052 175.408 443.018 176.647C442.695 177.032 442.353 177.325 442.048 177.555C442.3 177.706 442.526 177.937 442.618 178.3C442.833 179.16 442.095 180.022 440.426 180.865C440.011 181.075 439.453 181.356 438.671 181.492C438.303 181.555 437.971 181.571 437.687 181.579C437.681 181.744 437.643 181.922 437.543 182.105C437.249 182.645 436.639 182.902 435.719 182.84C434.707 182.787 433.874 182.593 433.139 182.424C432.497 182.276 431.944 182.151 431.51 182.181C430.704 182.246 430.084 182.892 429.355 183.729L427.537 185.859H427.537V185.859Z" fill="#F2F2F2"/>
<path d="M431.16 254.731L430.418 254.265L430.238 253.406L430.418 254.265L429.553 254.364C429.539 254.284 429.492 254.098 429.421 253.809C429.034 252.222 427.854 247.395 426.869 239.791C426.182 234.484 425.793 229.027 425.712 223.57C425.632 218.105 425.89 213.968 426.097 210.642C426.253 208.134 426.443 205.746 426.63 203.419C427.125 197.204 427.593 191.332 427.245 184.833C427.168 183.381 427.006 180.361 425.246 177.147C424.224 175.283 422.817 173.628 421.063 172.23L422.154 170.856C424.09 172.401 425.647 174.234 426.781 176.304C428.733 179.868 428.909 183.159 428.994 184.74C429.348 191.355 428.875 197.283 428.374 203.558C428.19 205.876 428 208.254 427.844 210.752C427.639 214.047 427.383 218.148 427.463 223.543C427.542 228.935 427.926 234.324 428.604 239.565C429.577 247.073 430.74 251.828 431.122 253.391C431.326 254.225 431.368 254.4 431.16 254.731V254.731V254.731Z" fill="#F2F2F2"/>
<path d="M417.852 175.017C417.781 175.017 417.708 175.016 417.634 175.011C416.144 174.93 414.763 174.036 413.531 172.353C412.953 171.562 412.657 170.659 412.067 168.858C411.976 168.581 411.531 167.173 411.261 165.235C411.084 163.969 411.106 163.439 411.357 162.972C411.635 162.451 412.084 162.088 412.59 161.843C412.568 161.675 412.586 161.502 412.659 161.325C412.957 160.594 413.75 160.69 414.179 160.736C414.397 160.763 414.667 160.799 414.96 160.784C415.42 160.762 415.667 160.625 416.041 160.419C416.399 160.222 416.845 159.977 417.505 159.842C418.808 159.569 419.9 159.939 420.26 160.061C422.153 160.693 423.086 162.168 424.167 163.876C424.382 164.219 425.122 165.466 425.61 167.176C425.962 168.409 425.912 168.958 425.806 169.365C425.591 170.203 425.082 170.683 423.791 171.742C422.442 172.85 421.765 173.405 421.184 173.743C419.83 174.526 418.981 175.017 417.852 175.017V175.017H417.852V175.017Z" fill="#F2F2F2"/>
<path d="M219.269 173.568H47.6207V218.247H219.269V173.568Z" fill="#96AAF4"/>
<path d="M156.851 50.7001H112.267V348.933H156.851V50.7001Z" fill="#96AAF4"/>
<path opacity="0.2" d="M158.499 214.883C158.815 213.652 159.003 212.373 159.049 211.055L214.811 160.164L166.883 136.707L145.76 193.156C144.316 192.778 142.809 192.556 141.247 192.556C140.418 192.556 139.608 192.633 138.809 192.742L117.84 136.707L69.9127 160.164L123.483 209.055C123.448 209.509 123.413 209.964 123.413 210.428C123.413 211.969 123.629 213.456 123.995 214.883C91.1578 225.167 77.7149 256.224 77.7149 256.224L118.955 289.733C116.495 265.084 131.516 239.849 139.636 228.218C140.168 228.266 140.703 228.299 141.247 228.299C141.791 228.299 142.326 228.266 142.858 228.218C150.978 239.849 165.999 265.084 163.539 289.733L204.779 256.224C204.779 256.224 191.336 225.167 158.499 214.883L158.499 214.883H158.499Z" fill="black"/>
<path d="M164.555 277.658C164.074 277.658 163.589 277.554 163.131 277.339C161.973 276.797 161.242 275.669 161.222 274.393C160.884 252.784 148.588 231.575 141.289 220.856C140.802 220.14 139.96 219.713 139.037 219.713H139.033C138.076 219.713 137.234 220.14 136.746 220.856C129.447 231.575 117.152 252.784 116.814 274.393C116.793 275.668 116.062 276.797 114.904 277.339C113.735 277.888 112.386 277.722 111.385 276.909L77.1073 249.056C75.8838 248.062 75.5246 246.32 76.2536 244.913C79.7185 238.226 93.0582 215.688 119.238 206.421C120.406 206.007 121.116 204.841 120.963 203.585C120.878 202.884 120.835 202.18 120.835 201.492C120.837 200.672 120.524 199.926 119.977 199.427L70.6969 154.452C69.8796 153.706 69.4853 152.606 69.6415 151.509C69.7981 150.412 70.4848 149.467 71.4781 148.981L112.508 128.901C113.35 128.489 114.332 128.452 115.203 128.799C116.074 129.146 116.762 129.85 117.091 130.729L136.115 181.569C136.508 182.618 137.515 183.303 138.658 183.274C139.52 183.255 140.394 183.304 141.266 183.418C142.496 183.583 143.657 182.887 144.087 181.735L163.174 130.729C163.503 129.85 164.191 129.146 165.062 128.799C165.933 128.452 166.916 128.489 167.757 128.901L208.786 148.981C209.78 149.467 210.467 150.412 210.623 151.51C210.78 152.606 210.385 153.706 209.568 154.452L157.938 201.572C157.457 202.011 157.158 202.611 157.095 203.259C157.081 203.4 157.067 203.54 157.05 203.679C156.908 204.859 157.64 206.011 158.789 206.418C184.975 215.684 198.317 238.226 201.782 244.913C202.511 246.32 202.152 248.062 200.928 249.056L166.65 276.909C166.041 277.404 165.303 277.658 164.555 277.658H164.555H164.555Z" fill="#96AAF4"/>
<path d="M454.061 349.907H310.108C304.149 349.907 299.302 345.049 299.302 339.078V265.678C299.302 259.706 304.149 254.848 310.108 254.848H454.061C460.019 254.848 464.867 259.706 464.867 265.678V339.078C464.867 345.049 460.019 349.907 454.061 349.907V349.907ZM310.108 256.248C304.92 256.248 300.699 260.478 300.699 265.678V339.078C300.699 344.277 304.92 348.507 310.108 348.507H454.061C459.249 348.507 463.47 344.277 463.47 339.078V265.678C463.47 260.478 459.249 256.248 454.061 256.248H310.108Z" fill="#3F3D56"/>
<path d="M396.533 254.932H371.939V349.823H396.533V254.932Z" fill="#96AAF4"/>
<path d="M464.168 290.67H300V315.317H464.168V290.67Z" fill="#96AAF4"/>
<path opacity="0.2" d="M377.284 318.329C377.961 318.503 378.665 318.607 379.391 318.632L407.405 349.458L420.317 322.963L389.244 311.286C389.452 310.488 389.574 309.655 389.574 308.791C389.574 308.333 389.532 307.885 389.471 307.443L420.317 295.851L407.405 269.356L380.492 298.971C380.241 298.951 379.991 298.932 379.736 298.932C378.888 298.932 378.069 299.051 377.284 299.254C371.622 281.101 354.527 273.669 354.527 273.669L336.081 296.468C349.649 295.108 363.54 303.412 369.943 307.901C369.917 308.194 369.898 308.49 369.898 308.791C369.898 309.092 369.917 309.388 369.943 309.681C363.54 314.171 349.649 322.474 336.081 321.115L354.527 343.913C354.527 343.913 371.622 336.481 377.284 318.329L377.284 318.328V318.329Z" fill="black"/>
<path d="M408.415 345.22C407.858 345.22 407.322 344.986 406.941 344.567L381.001 316.023C380.788 315.788 380.476 315.639 380.124 315.603L380.013 315.592C379.379 315.521 378.801 315.864 378.602 316.428C373.482 330.976 361.017 338.379 357.319 340.301C356.486 340.736 355.451 340.517 354.858 339.783L339.524 320.831C339.038 320.23 338.94 319.421 339.267 318.718C339.59 318.025 340.262 317.589 341.021 317.577C352.875 317.394 364.522 310.613 370.41 306.588C370.764 306.345 370.976 305.927 370.975 305.469C370.976 304.99 370.764 304.572 370.41 304.33C364.523 300.304 352.877 293.523 341.02 293.34C340.262 293.329 339.59 292.891 339.267 292.199C338.94 291.496 339.038 290.686 339.524 290.086L354.858 271.134C355.452 270.401 356.487 270.182 357.319 270.614C361.017 272.538 373.479 279.94 378.6 294.483C378.799 295.046 379.365 295.397 379.936 295.328C380.557 295.25 381.176 295.232 381.774 295.276L406.941 267.582C407.387 267.092 408.044 266.855 408.698 266.95C409.353 267.044 409.917 267.456 410.207 268.051L421.262 290.735C421.509 291.241 421.53 291.83 421.323 292.352C421.116 292.874 420.695 293.286 420.17 293.483L392.184 304.001C391.669 304.194 391.332 304.699 391.346 305.255L391.349 305.458C391.349 305.894 391.319 306.338 391.259 306.777C391.182 307.342 391.533 307.904 392.094 308.115L420.171 318.666C420.696 318.864 421.116 319.276 421.323 319.798C421.53 320.321 421.508 320.909 421.262 321.414L410.207 344.099C409.917 344.694 409.353 345.106 408.698 345.199C408.604 345.213 408.509 345.22 408.415 345.22V345.22Z" fill="#96AAF4"/>
<path d="M278.041 170.195H255.528V162.766C255.528 150.315 265.615 140.205 278.041 140.205H278.041V170.195V170.195Z" fill="#2F2E41"/>
<path d="M273.051 156.327L276.921 173.775L254.239 170L263.482 153.5L273.051 156.327Z" fill="#FFB6B6"/>
<path opacity="0.1" d="M273.051 156.327L276.921 173.775L254.239 170L263.482 153.5L273.051 156.327Z" fill="black"/>
<path d="M273.051 193.599H251.304V225.852H273.051V193.599Z" fill="#FFB6B6"/>
<path d="M287.186 252.222L282.402 277.938C282.402 277.938 285.446 295.808 276.313 314.114L270.224 332.856L261.09 331.549C261.09 331.549 266.744 317.601 266.744 311.499C266.744 305.397 268.049 281.86 268.049 281.86L267.396 255.004L287.186 252.222V252.222Z" fill="#FFB6B6"/>
<path d="M259.785 331.113C259.785 331.113 270.224 327.19 271.093 332.856L270.658 335.471C270.658 335.471 274.573 347.24 268.919 348.111C263.265 348.983 258.045 350.291 257.61 347.676C257.176 345.06 257.182 341.796 258.266 339.505C259.35 337.215 259.785 331.113 259.785 331.113V331.113Z" fill="#2F2E41"/>
<path d="M254.261 248.233L251.72 274.268C251.72 274.268 243.837 290.584 247.53 310.714L248.177 330.414L257.313 331.703C257.313 331.703 255.753 316.73 257.446 310.869C259.14 305.007 264.418 282.036 264.418 282.036L272.498 256.42L254.261 248.233V248.233V248.233Z" fill="#FFB6B6"/>
<path d="M258.688 331.648C258.688 331.648 249.75 324.971 247.342 330.171L247.034 332.804C247.034 332.804 240.132 345.82 245.321 348.233C250.51 350.646 255.036 350.554 256.18 348.163C257.323 345.773 258.223 342.635 257.817 340.133C257.412 337.631 258.687 331.648 258.687 331.648L258.688 331.648V331.648Z" fill="#2F2E41"/>
<path d="M281.532 210.815L300.234 250.479C300.234 250.479 262.612 269.438 240.431 269.438L251.444 210.815H281.532L281.532 210.815V210.815Z" fill="#2F2E41"/>
<path d="M264.787 164.396L275.66 166.139L274.79 193.599L286.969 218.007L271.311 225.852C271.311 225.852 259.133 202.752 256.958 188.368C254.783 173.985 256.088 163.524 256.088 163.524L264.787 164.396L264.787 164.396V164.396Z" fill="#E6E6E6"/>
<path d="M256.523 165.268L245.65 167.011L246.52 194.47L243.91 219.75L249.999 226.724C249.999 226.724 262.177 203.623 264.352 189.24C266.527 174.857 265.222 164.396 265.222 164.396L256.523 165.268L256.523 165.268V165.268Z" fill="#E6E6E6"/>
<path d="M273.268 166.793L275.66 166.139C275.66 166.139 284.141 165.05 285.446 168.537C286.751 172.024 286.316 192.509 286.316 192.509C286.316 192.509 288.56 217.652 279.827 217.938C271.094 218.225 272.833 197.304 272.833 197.304L273.268 166.793V166.793Z" fill="#E6E6E6"/>
<path d="M269.255 161.116C275.472 161.116 280.512 156.065 280.512 149.835C280.512 143.605 275.472 138.555 269.255 138.555C263.038 138.555 257.999 143.605 257.999 149.835C257.999 156.065 263.038 161.116 269.255 161.116Z" fill="#FFB6B6"/>
<path d="M265.734 165.36C268.149 164.746 270.886 167.331 271.85 171.135C272.255 172.649 272.293 174.238 271.96 175.77L272.997 180.094L273.074 180.09L281.258 199.42C283.161 203.914 282.96 209.074 280.533 213.307C279.089 215.826 277.194 217.519 274.968 215.79C271.275 212.923 268.863 196.504 267.762 187.072L265.215 177.485C264.193 176.298 263.47 174.882 263.105 173.357C262.142 169.554 263.319 165.974 265.734 165.36H265.734V165.36Z" fill="#FFB6B6"/>
<path d="M255.218 166.793L252.826 166.139C252.826 166.139 244.345 165.05 243.04 168.537C241.735 172.024 242.17 192.509 242.17 192.509C242.17 192.509 239.926 217.652 248.66 217.938C257.393 218.225 255.653 197.304 255.653 197.304L255.218 166.793V166.793Z" fill="#E6E6E6"/>
<path d="M262.753 165.36C260.338 164.746 257.6 167.331 256.637 171.135C256.231 172.649 256.194 174.238 256.527 175.77L255.489 180.094L255.413 180.09L247.228 199.42C245.325 203.914 245.526 209.074 247.953 213.307C249.397 215.826 251.293 217.519 253.518 215.79C257.211 212.923 259.623 196.504 260.725 187.072L263.271 177.485C264.293 176.298 265.017 174.882 265.381 173.357C266.344 169.554 265.167 165.974 262.753 165.36H262.753V165.36Z" fill="#FFB6B6"/>
<path d="M247.705 158.961C248.277 157.217 249.408 155.689 249.913 153.924C250.585 151.58 252.014 156.78 252.154 154.345C252.419 149.718 259.466 137.815 263.49 135.528C267.513 133.242 269.824 133.931 273.923 136.078C273.923 136.078 275.912 136.205 278.389 137.431C280.866 138.656 283.096 140.619 284.059 143.214C284.823 145.27 284.738 147.529 284.994 149.708C285.704 155.779 289.101 161.554 288.372 167.623C288.144 169.517 287.426 171.475 285.881 172.589C284.336 173.702 281.84 173.581 280.823 171.969C280.476 171.419 280.329 170.766 280.032 170.188C279.735 169.609 279.197 169.07 278.548 169.088C277.572 169.115 277.075 170.427 277.46 171.326C277.845 172.225 278.749 172.768 279.598 173.251C277.576 174.162 275.068 173.878 273.3 172.538C271.531 171.197 270.577 168.856 270.902 166.658C271.361 163.56 275.863 164.201 276.393 161.116C276.78 158.869 278.136 155.111 277.766 152.862C277.397 150.613 275.623 153.336 277.492 152.036C275.436 153.029 271.038 146.235 268.886 145.474C266.734 144.713 264.909 143.065 263.931 140.999C261.648 144.315 259.64 143.415 258.822 147.359C258.005 151.303 258.761 160.265 262.127 162.467C260.78 163.388 259.706 164.705 259.074 166.212C258.716 167.065 258.483 167.999 257.889 168.708C256.754 170.062 254.658 170.144 252.987 169.575C250.916 168.869 249.145 167.319 248.168 165.357C247.191 163.395 247.021 161.044 247.705 158.961L247.705 158.961L247.705 158.961Z" fill="#2F2E41"/>
</g>
<defs>
<clipPath id="clip0_253_164">
<rect width="479" height="300" fill="white" transform="translate(10 50)"/>
</clipPath>
</defs>
</svg>
