<svg width="31" height="31" viewBox="0 0 31 31" fill="none" xmlns="http://www.w3.org/2000/svg">
<rect x="0.96344" y="0.218994" width="30" height="30" rx="5.08296" fill="url(#paint0_linear_252_132)"/>
<path fill-rule="evenodd" clip-rule="evenodd" d="M11.7118 4.96861C12.8114 4.91799 13.1621 4.90674 15.9633 4.90674C18.7646 4.90674 19.1152 4.91893 20.2139 4.96861C21.3127 5.0183 22.0627 5.19361 22.7189 5.44768C23.4061 5.70736 24.0296 6.1133 24.5452 6.6383C25.0702 7.15299 25.4752 7.77549 25.7339 8.46361C25.9889 9.11986 26.1633 9.86986 26.2139 10.9667C26.2646 12.0683 26.2758 12.4189 26.2758 15.2192C26.2758 18.0205 26.2636 18.3711 26.2139 19.4708C26.1643 20.5677 25.9889 21.3177 25.7339 21.9739C25.4752 22.6621 25.0695 23.2857 24.5452 23.8011C24.0296 24.3261 23.4061 24.7311 22.7189 24.9899C22.0627 25.2449 21.3127 25.4192 20.2158 25.4699C19.1152 25.5205 18.7646 25.5317 15.9633 25.5317C13.1621 25.5317 12.8114 25.5196 11.7118 25.4699C10.6149 25.4202 9.86488 25.2449 9.20863 24.9899C8.52043 24.7311 7.8969 24.3254 7.38144 23.8011C6.8568 23.2861 6.4508 22.6629 6.19176 21.9749C5.93769 21.3186 5.76332 20.5686 5.71269 19.4717C5.66207 18.3702 5.65082 18.0196 5.65082 15.2192C5.65082 12.418 5.66301 12.0674 5.71269 10.9686C5.76238 9.86986 5.93769 9.11986 6.19176 8.46361C6.45118 7.77556 6.85749 7.15234 7.38238 6.63736C7.89711 6.11283 8.52001 5.70684 9.20769 5.44768C9.86394 5.19361 10.6139 5.01924 11.7108 4.96861H11.7118ZM20.1305 6.82486C19.043 6.77518 18.7168 6.76486 15.9633 6.76486C13.2099 6.76486 12.8836 6.77518 11.7961 6.82486C10.7902 6.8708 10.2446 7.03861 9.88082 7.18018C9.39988 7.36768 9.05582 7.58986 8.69488 7.9508C8.35274 8.28366 8.08942 8.68888 7.92426 9.13674C7.78269 9.50049 7.61488 10.0461 7.56894 11.0521C7.51926 12.1396 7.50894 12.4658 7.50894 15.2192C7.50894 17.9727 7.51926 18.2989 7.56894 19.3864C7.61488 20.3924 7.78269 20.938 7.92426 21.3017C8.08926 21.7489 8.35269 22.1549 8.69488 22.4877C9.02769 22.8299 9.43363 23.0933 9.88082 23.2583C10.2446 23.3999 10.7902 23.5677 11.7961 23.6136C12.8836 23.6633 13.2089 23.6736 15.9633 23.6736C18.7177 23.6736 19.043 23.6633 20.1305 23.6136C21.1364 23.5677 21.6821 23.3999 22.0458 23.2583C22.5268 23.0708 22.8708 22.8486 23.2318 22.4877C23.5739 22.1549 23.8374 21.7489 24.0024 21.3017C24.1439 20.938 24.3118 20.3924 24.3577 19.3864C24.4074 18.2989 24.4177 17.9727 24.4177 15.2192C24.4177 12.4658 24.4074 12.1396 24.3577 11.0521C24.3118 10.0461 24.1439 9.50049 24.0024 9.13674C23.8149 8.6558 23.5927 8.31174 23.2318 7.9508C22.8989 7.60868 22.4937 7.34537 22.0458 7.18018C21.6821 7.03861 21.1364 6.8708 20.1305 6.82486V6.82486ZM14.6461 18.3983C15.3817 18.7045 16.2009 18.7458 16.9636 18.5152C17.7263 18.2846 18.3852 17.7963 18.828 17.1338C19.2707 16.4713 19.4696 15.6757 19.3909 14.8828C19.3121 14.0899 18.9605 13.3489 18.3961 12.7864C18.0364 12.4269 17.6013 12.1516 17.1224 11.9803C16.6434 11.8091 16.1325 11.7461 15.6263 11.7961C15.1201 11.846 14.6313 12.0075 14.195 12.269C13.7587 12.5306 13.3859 12.8856 13.1033 13.3085C12.8207 13.7314 12.6354 14.2117 12.5607 14.7148C12.486 15.218 12.5238 15.7314 12.6713 16.2182C12.8189 16.7049 13.0725 17.1529 13.414 17.5299C13.7555 17.9069 14.1763 18.2035 14.6461 18.3983ZM12.2152 11.4711C12.7074 10.9789 13.2917 10.5885 13.9348 10.3221C14.578 10.0557 15.2672 9.91859 15.9633 9.91859C16.6594 9.91859 17.3487 10.0557 17.9918 10.3221C18.6349 10.5885 19.2192 10.9789 19.7114 11.4711C20.2037 11.9633 20.5941 12.5477 20.8605 13.1908C21.1269 13.8339 21.264 14.5231 21.264 15.2192C21.264 15.9153 21.1269 16.6046 20.8605 17.2477C20.5941 17.8908 20.2037 18.4752 19.7114 18.9674C18.7174 19.9614 17.3691 20.5199 15.9633 20.5199C14.5575 20.5199 13.2093 19.9614 12.2152 18.9674C11.2211 17.9733 10.6627 16.6251 10.6627 15.2192C10.6627 13.8134 11.2211 12.4652 12.2152 11.4711V11.4711ZM22.4396 10.708C22.5615 10.5929 22.6592 10.4546 22.7267 10.3011C22.7943 10.1476 22.8303 9.98215 22.8328 9.81449C22.8352 9.64682 22.804 9.48038 22.741 9.325C22.6779 9.16962 22.5843 9.02847 22.4658 8.9099C22.3472 8.79133 22.2061 8.69776 22.0507 8.63472C21.8953 8.57169 21.7289 8.54047 21.5612 8.54291C21.3935 8.54535 21.2281 8.58141 21.0746 8.64895C20.9211 8.71649 20.7828 8.81414 20.6677 8.93611C20.4439 9.17333 20.3214 9.48841 20.3262 9.81449C20.3309 10.1406 20.4626 10.4519 20.6932 10.6825C20.9237 10.9131 21.2351 11.0448 21.5612 11.0495C21.8873 11.0543 22.2024 10.9318 22.4396 10.708V10.708Z" fill="white"/>
<defs>
<linearGradient id="paint0_linear_252_132" x1="30.9634" y1="-3.06226" x2="6.58844" y2="39.1252" gradientUnits="userSpaceOnUse">
<stop stop-color="#5031D3"/>
<stop offset="0.39375" stop-color="#C0226C"/>
<stop offset="0.773958" stop-color="#EF562E"/>
<stop offset="1" stop-color="#F9D979"/>
</linearGradient>
</defs>
</svg>
