<svg width="240" height="240" viewBox="0 0 240 240" fill="none" xmlns="http://www.w3.org/2000/svg">
<circle cx="120" cy="120" r="120" fill="url(#paint0_linear_87_7)"/>
<path fill-rule="evenodd" clip-rule="evenodd" d="M105.285 53.4047C104.248 55.4267 94.8803 73.5184 84.4665 93.6081C74.0523 113.698 65.619 130.276 65.7256 130.448C65.8318 130.62 66.0653 130.671 66.2445 130.56C66.4237 130.449 69.5255 124.652 73.1374 117.677C76.7497 110.702 85.8723 93.0866 93.4102 78.5325C100.949 63.9784 107.235 52.2097 107.381 52.3798C107.527 52.5499 110.753 59.427 114.552 67.6622C118.349 75.8973 122.806 85.555 124.455 89.1234C126.104 92.6921 127.593 95.6116 127.763 95.6116C127.934 95.6116 128.193 94.5787 128.339 93.3158C128.956 87.9818 130.396 84.0382 133.12 80.2187C140.23 70.2515 153.277 66.8009 164.074 72.0323C170.433 75.1139 175.174 80.6515 177.251 87.4224C177.757 89.0719 178.391 90.421 178.661 90.421C179.423 90.421 178.333 86.8016 176.385 82.8607C174.022 78.0825 169.559 73.6102 164.853 71.3052C157.265 67.5887 149.519 67.6007 141.85 71.3403C135.437 74.4675 130.024 81.2197 128.314 88.225C127.938 89.7622 127.516 91.3462 127.375 91.745C127.199 92.2425 124.058 85.8413 117.384 71.3818C112.03 59.7832 107.542 50.1662 107.41 50.0109C107.277 49.8556 106.322 51.3828 105.285 53.4047ZM69.292 70.4894C67.2332 70.9921 65.2774 72.2319 64.2364 73.6945C63.5993 74.5896 63.1926 74.8152 62.5719 74.6184C56.8198 72.7921 51.9873 79.563 55.804 84.1008C57.4093 86.009 58.6834 86.3224 66.1124 86.6363C74.1157 86.9744 75.9347 86.6011 78.3395 84.1248C80.1273 82.2841 80.6323 80.9929 80.6323 78.2622C80.6323 73.076 74.8713 69.1271 69.292 70.4894ZM74.9516 71.8738C77.7089 73.0261 79.834 75.9105 79.834 78.5002C79.834 81.6497 77.0267 84.8571 73.5725 85.6544C71.3852 86.1595 59.277 85.3538 57.834 84.6071C55.7529 83.5307 54.852 80.3181 55.9963 78.0554C56.6769 76.7102 58.9465 75.2484 60.3547 75.2484C60.9917 75.2484 62.0371 75.5196 62.6781 75.8514C63.8061 76.4347 63.862 76.4187 64.4164 75.3523C66.2269 71.871 71.0974 70.2627 74.9516 71.8738ZM151.082 83.7683C147.325 85.014 144.37 87.6125 142.839 91.0199C141.488 94.0233 141.541 98.6346 142.96 101.663C144.212 104.335 146.612 106.789 149.209 108.053C153.041 109.919 159.101 109.324 162.128 106.785C164.03 105.19 163.237 104.868 160.976 106.317C156.014 109.501 149.645 108.592 145.73 104.142C143.579 101.697 142.751 99.0774 142.987 95.4603C143.291 90.7999 145.325 87.6724 149.366 85.6528C152.611 84.0306 156.442 83.9391 159.464 85.4121C160.562 85.9471 161.743 86.6191 162.09 86.9054C163.352 87.9503 165.588 91.2196 165.848 92.4018C166.109 93.5957 166.593 93.9526 167.017 93.2655C167.424 92.6079 164.826 88.094 163.191 86.6163C162.293 85.8046 160.73 84.7744 159.719 84.3268C157.45 83.3227 153.247 83.0507 151.082 83.7683ZM99.2574 87.4947C99.1141 87.638 99.8042 89.2739 100.791 91.1297C101.778 92.9856 102.585 94.6825 102.585 94.9005C102.585 95.1185 99.5943 100.713 95.938 107.333C80.5249 135.241 79.4324 137.294 79.798 137.66C80.0271 137.889 88.0141 137.859 100.658 137.581C111.926 137.333 122.179 137.131 123.441 137.133C124.704 137.135 125.736 136.994 125.736 136.821C125.736 136.538 124.132 133.416 117.18 120.167C106.681 100.161 104.182 95.2994 104.182 94.8774C104.182 94.6091 104.901 93.1209 105.779 91.5709C107.435 88.6466 107.646 88.0254 106.984 88.0254C106.768 88.0254 105.915 89.2799 105.088 90.8135C104.26 92.3471 103.483 93.6049 103.361 93.6085C103.239 93.6121 102.525 92.3463 101.775 90.7951C100.376 87.9024 99.7156 87.0363 99.2574 87.4947ZM169.491 94.0281C167.987 94.4785 166.482 95.8923 165.799 97.4954C164.077 101.539 167.051 105.993 171.474 105.993C177.675 105.993 179.542 96.9512 173.872 94.3755C172.094 93.5677 171.252 93.5011 169.491 94.0281ZM173.622 95.3238C174.998 96.0201 176.428 98.2864 176.428 99.7693C176.428 102.861 173.423 105.543 170.561 105.006C169.697 104.844 168.559 104.191 167.775 103.406C166.631 102.262 166.451 101.814 166.463 100.143C166.471 99.0786 166.708 97.7917 166.989 97.2846C168.183 95.1329 171.379 94.1882 173.622 95.3238ZM102.845 107.463C102.756 107.553 101.423 107.574 99.8852 107.509L97.0884 107.39L99.9367 102.2L102.785 97.0091L102.897 102.154C102.959 104.984 102.936 107.373 102.845 107.463ZM107.819 104.496L109.38 107.59H106.522H103.665L103.921 104.296C104.062 102.484 104.18 100.283 104.184 99.4048L104.192 97.8077L105.225 99.6044C105.793 100.593 106.96 102.794 107.819 104.496ZM130.284 109.628C127.392 113.009 127.014 113.579 127.665 113.579C127.884 113.579 129.055 112.483 130.267 111.144L132.471 108.708L132.742 110.153C133.037 111.727 133.017 111.76 129.172 116.157C126.314 119.425 127.372 119.457 130.37 116.193L132.921 113.417L132.912 114.995C132.904 116.38 132.561 116.955 130.118 119.683C127.52 122.585 126.901 123.551 127.632 123.568C127.797 123.572 129.047 122.359 130.411 120.873L132.889 118.171L132.905 120.172C132.92 122.089 132.803 122.309 130.127 125.358C128.59 127.109 127.333 128.679 127.333 128.846C127.333 129.644 128.276 128.929 130.4 126.52L132.721 123.889L132.991 125.622C133.14 126.574 133.274 128.488 133.29 129.873C133.309 131.444 133.47 132.299 133.719 132.146C133.94 132.009 134.118 130.199 134.118 128.092V124.285L136.957 126.914C138.518 128.36 139.991 129.422 140.229 129.274C140.485 129.116 139.319 127.746 137.391 125.937L134.118 122.868V120.783V118.698L137.112 121.378C141.125 124.971 140.964 123.712 136.912 119.817C134.125 117.137 133.719 116.571 133.719 115.363C133.719 114.601 133.839 113.978 133.987 113.978C134.133 113.978 135.477 115.16 136.971 116.603C138.686 118.259 139.868 119.116 140.175 118.926C140.501 118.725 139.516 117.563 137.187 115.403C133.723 112.193 133.711 112.175 133.715 110.218L133.719 108.254L136.702 111.146C138.358 112.753 139.878 113.919 140.12 113.77C140.662 113.435 140.077 112.767 136.072 109.152L133.036 106.412L130.284 109.628ZM102.585 113.678L102.386 118.57L97.0293 118.682C94.0832 118.743 91.539 118.654 91.3758 118.482C91.2121 118.311 92.2503 116.059 93.6825 113.479L96.2865 108.788L99.536 108.787L102.785 108.786L102.585 113.678ZM112.458 113.28C113.721 115.75 114.81 117.981 114.879 118.236C114.971 118.576 113.501 118.684 109.427 118.636C106.359 118.6 103.789 118.48 103.716 118.37C103.643 118.261 103.639 116.059 103.707 113.479L103.831 108.788H106.997H110.163L112.458 113.28ZM147.441 112.097C145.264 114.476 144.816 115.124 145.068 115.532C145.208 115.758 145.924 115.286 146.693 114.459C147.998 113.054 148.067 113.028 148.078 113.934C148.084 114.502 147.443 115.588 146.492 116.62C144.941 118.303 144.52 119.169 145.253 119.169C145.45 119.169 146.163 118.54 146.838 117.772C147.512 117.003 148.16 116.374 148.276 116.374C148.923 116.374 148.273 117.631 146.692 119.44C145.055 121.311 144.497 122.363 145.14 122.363C145.275 122.363 146.076 121.599 146.92 120.666L148.455 118.969L148.471 120.085C148.483 120.869 147.955 121.77 146.692 123.121C144.974 124.958 144.471 125.957 145.263 125.957C145.466 125.957 146.274 125.206 147.06 124.288L148.488 122.619V125.286C148.488 127.35 148.619 127.953 149.066 127.953C149.488 127.953 149.678 127.353 149.765 125.747L149.885 123.541L151.402 124.795C153.721 126.711 153.692 125.802 151.358 123.439C150.115 122.179 149.286 120.986 149.286 120.454C149.286 119.245 149.61 119.333 151.329 121.012C152.22 121.882 152.997 122.337 153.286 122.158C153.607 121.96 153.007 121.182 151.478 119.814C149.955 118.452 149.239 117.525 149.338 117.044C149.464 116.424 149.731 116.532 151.201 117.792C153.682 119.92 153.793 119.117 151.358 116.651C150.007 115.282 149.286 114.215 149.286 113.583C149.286 112.672 149.391 112.718 151.045 114.341C152.017 115.296 153.002 115.946 153.247 115.794C153.843 115.425 153.654 115.182 150.948 112.837L148.615 110.815L147.441 112.097ZM164.103 117.2C162.532 118.972 161.368 120.617 161.516 120.857C161.676 121.116 162.807 120.172 164.301 118.534L166.817 115.775L166.833 117.535C166.847 119.162 166.637 119.53 164.047 122.398C162.301 124.333 161.414 125.605 161.691 125.776C162.171 126.073 162.246 126.007 165.005 122.849L166.849 120.739V122.255C166.849 123.562 166.465 124.208 164.075 126.932C162.549 128.67 161.414 130.275 161.552 130.498C161.69 130.721 162.937 129.657 164.322 128.131L166.842 125.358L166.835 127.354C166.829 129.249 166.689 129.512 164.068 132.521C162.549 134.264 161.419 135.872 161.556 136.094C161.693 136.316 163.03 135.159 164.526 133.523L167.247 130.548L167.247 134.874C167.248 138.158 167.368 139.159 167.747 139.03C168.112 138.906 168.206 137.88 168.099 135.204C168.019 133.193 168.08 131.547 168.234 131.547C168.388 131.547 169.655 132.642 171.049 133.981C172.598 135.469 173.768 136.302 174.058 136.123C174.368 135.932 173.397 134.776 171.255 132.79L167.978 129.75L168.112 127.754L168.246 125.757L170.948 128.324C172.708 129.996 173.787 130.755 174.041 130.501C174.295 130.247 173.318 129.097 171.239 127.203C168.254 124.485 168.046 124.191 168.046 122.682V121.069L170.86 123.724C172.458 125.232 173.866 126.26 174.119 126.103C174.392 125.935 173.216 124.557 171.106 122.571C167.83 119.486 167.647 119.225 167.647 117.644C167.647 116.726 167.777 115.975 167.936 115.975C168.096 115.975 169.44 117.181 170.925 118.655C172.826 120.542 173.75 121.209 174.048 120.912C174.346 120.613 173.416 119.525 170.907 117.233C168.946 115.443 167.256 113.978 167.151 113.978C167.046 113.978 165.674 115.428 164.103 117.2ZM102.289 127.853C102.148 133.239 101.918 136.241 101.63 136.432C101.387 136.593 97.2145 136.728 92.3573 136.731C87.5 136.734 82.9465 136.853 82.2384 136.995C81.2178 137.199 80.9795 137.129 81.0909 136.657C81.1679 136.329 83.2806 132.35 85.7861 127.815L90.3412 119.568H96.423H102.505L102.289 127.853ZM119.989 127.706C122.287 132.073 124.061 135.751 123.932 135.88C123.803 136.009 119.008 136.187 113.278 136.275L102.859 136.435L103.119 133.092C103.262 131.254 103.38 127.454 103.381 124.649L103.384 119.548L109.598 119.658L115.811 119.768L119.989 127.706ZM153.277 130.233C151.156 131.241 145.271 137.372 143.275 140.652C142.3 142.255 141.019 144.356 140.428 145.323C137.535 150.052 135.768 155.521 135.43 160.781C135.248 163.617 135.329 164.448 135.869 165.273C136.233 165.829 136.681 166.284 136.864 166.284C137.046 166.284 138.299 164.891 139.646 163.189C140.994 161.488 142.826 159.493 143.718 158.756L145.34 157.416L144.73 158.877C143.683 161.383 142.908 166.349 143.296 168.068C143.661 169.688 144.803 171.51 145.625 171.784C146.495 172.075 148.322 169.605 151.471 163.881C153.47 160.248 154.713 158.377 154.961 158.625C155.21 158.874 155.192 159.301 154.911 159.826C153.917 161.684 154.675 163.429 156.747 164.06C157.883 164.406 160.551 162.065 161.516 159.876C161.953 158.886 162.589 158.192 163.278 157.951L164.356 157.575L163.748 159.476C163.408 160.541 163.256 161.836 163.403 162.422C163.699 163.602 164.887 164.403 165.812 164.047C166.152 163.917 168.339 161.414 170.672 158.486C175.043 152.999 176.891 151.295 174.821 154.66C173.486 156.831 172.437 159.569 172.437 160.882C172.437 161.369 172.813 162.109 173.273 162.525C174.105 163.279 174.123 163.267 177.485 159.692C179.342 157.718 180.672 156.495 180.441 156.974C179.723 158.464 179.932 161.273 180.848 162.437C182.362 164.362 184.05 163.814 187.904 160.146C189.475 158.65 189.6 158.599 189.6 159.453C189.6 162.122 192.307 164.697 194.526 164.139C195.843 163.809 204.803 157.089 205.499 155.911C206.374 154.429 205.413 153.929 204.072 155.168C202.535 156.587 197.154 160.482 195.666 161.252C193.956 162.137 191.993 162.105 192.001 161.193C192.015 159.358 192.458 158.789 194.079 158.53C197.343 158.008 199.55 154.289 197.628 152.549C195.775 150.871 193.907 151.688 190.099 155.842C186.976 159.248 183.676 161.892 182.547 161.892C181.602 161.892 181.981 160.257 183.613 157.3C185.306 154.232 185.586 152.72 184.613 151.911C183.786 151.225 182.586 152.054 178.623 156.05C176.867 157.82 175.754 158.773 176.15 158.167C179.394 153.196 180.364 150.786 179.703 149.334C179.448 148.774 178.973 148.316 178.647 148.316C177.725 148.316 173.013 152.92 169.759 157.001C168.139 159.032 166.719 160.694 166.604 160.694C166.489 160.694 167.24 159.091 168.273 157.131C170.257 153.368 170.342 152.309 168.663 152.309C167.935 152.309 167.371 152.744 166.613 153.889C165.947 154.896 165.066 155.634 164.186 155.925C163.425 156.176 162.765 156.319 162.719 156.242C162.672 156.165 162.326 155.424 161.949 154.596C161.251 153.06 160.461 152.57 157.914 152.092C156.634 151.852 156.326 151.975 155.078 153.223C154.067 154.235 153.677 154.976 153.677 155.887C153.677 157.413 148.207 167.485 146.405 169.278L145.201 170.476L145.439 168.278C145.57 167.069 146.231 164.11 146.907 161.701C148.316 156.681 148.172 155.503 146.15 155.503C145.206 155.503 144.285 156.241 141.139 159.521C136.868 163.972 136.947 164.039 138.958 157.664L140.102 154.035L142.997 152.873C153.127 148.809 161.103 139.411 159.894 132.966C159.33 129.959 156.399 128.749 153.277 130.233ZM72.8089 131.088C69.2788 133.67 64.7701 139.261 60.3894 146.488C58.79 149.126 57.4816 151.189 57.4816 151.071C57.4816 150.954 58.7301 148.345 60.2561 145.274C63.9789 137.781 64.3609 135.82 62.4909 133.802C61.1601 132.366 60.1679 132.772 56.8817 136.102C51.7841 141.266 47.9299 146.943 42.4241 157.4C41.0079 160.09 39.7777 162.291 39.6903 162.291C39.2684 162.291 41.6581 157.104 46.7253 147.02C51.3307 137.856 52.2926 135.642 52.2926 134.205C52.2926 130.735 49.887 130.206 45.8683 132.793C39.8515 136.666 34.5983 143.967 34.0579 149.208C33.7992 151.714 34.4347 153.906 35.4198 153.906C35.8449 153.906 35.9191 153.708 35.6816 153.208C35.1811 152.153 35.3966 149.137 36.1159 147.126C37.0423 144.535 40.123 140.169 42.5498 138.008C44.704 136.09 48.9853 133.296 49.295 133.606C49.5022 133.813 49.3673 134.063 44.9275 141.728C38.5862 152.676 36.2333 158.231 35.7108 163.489C35.4805 165.806 35.5551 166.234 36.4045 167.482C36.9282 168.25 37.6187 168.879 37.9392 168.879C38.2813 168.879 39.4847 166.983 40.8526 164.287C47.6833 150.831 50.9998 145.45 55.3864 140.711C60.5782 135.101 60.7147 135.436 56.5631 143.593C52.1889 152.19 50.3312 157.067 50.0123 160.798C49.8195 163.05 49.9001 163.629 50.5001 164.291C51.9402 165.883 52.226 165.567 55.9201 158.298C59.0989 152.044 62.7052 146.328 66.8804 140.93C69.3918 137.682 73.3398 133.701 73.6958 134.057C73.8036 134.165 71.6921 138.086 69.0038 142.77C66.316 147.454 63.6237 152.459 63.0214 153.894C61.2288 158.162 59.9236 163.243 59.6342 167.079C59.37 170.583 59.3272 170.703 58.0879 171.47C56.1564 172.664 52.7544 176.441 51.8855 178.356C50.8996 180.529 50.8573 183.982 51.7945 185.82C54.4253 190.981 61.4272 191.147 66.8636 186.176C69.4054 183.853 72.6525 179.136 75.0609 174.269C75.9846 172.403 76.7857 170.823 76.8407 170.759C76.8958 170.694 77.5923 170.952 78.3886 171.332C79.361 171.796 79.9932 172.457 80.3145 173.346C80.5776 174.073 81.0258 174.669 81.3112 174.669C82.6975 174.669 80.8462 171.529 78.8201 170.444C77.1477 169.549 77.1201 169.872 79.4029 163.558C81.7543 157.054 82.444 154.097 81.8924 152.886C81.6477 152.349 81.1939 151.91 80.8837 151.91C80.5732 151.91 79.0584 153.392 77.5169 155.204C74.0547 159.273 72.3451 160.922 71.9735 160.55C71.8166 160.393 72.6101 158.475 73.7369 156.288C75.5587 152.751 75.7195 152.243 75.1871 151.711C74.3049 150.828 73.6356 150.972 72.5339 152.282C69.8919 155.423 68.8633 160.133 70.4392 161.875C70.8447 162.323 71.459 162.69 71.8043 162.69C72.1495 162.69 73.8527 161.298 75.5894 159.596C77.3257 157.894 78.6533 156.771 78.5391 157.1C78.0741 158.445 74.0798 167.318 73.7345 167.774C73.4627 168.133 72.4122 168.198 69.8472 168.016C67.0999 167.821 65.8793 167.915 64.2579 168.445C63.1168 168.819 62.0742 169.015 61.9405 168.881C61.6032 168.543 62.7831 164.207 64.2424 160.421C64.9137 158.68 67.1949 154.301 69.312 150.69C76.2404 138.87 78.0657 134.219 76.8842 131.391C76.1278 129.579 74.9871 129.495 72.8089 131.088ZM141.303 130.324C139.099 131 135.261 133.229 132.474 135.452C127.329 139.554 123.784 143.729 117.366 153.246C114.88 156.933 114.185 157.689 112.698 158.327C110.894 159.1 109.899 160.547 110.66 161.293C110.932 161.56 111.128 161.525 111.252 161.189C111.353 160.912 111.804 160.488 112.252 160.248C113.392 159.638 107.618 167.968 105.7 169.701C104.864 170.457 103.781 171.075 103.294 171.075C102.498 171.075 102.566 170.924 103.961 169.578C107.764 165.907 111.381 158.432 110.815 155.414C110.671 154.645 110.208 153.704 109.787 153.323C108.257 151.938 105.129 153.961 102.712 157.899C101.538 159.812 100.59 163.71 100.59 166.625V169.047L98.9408 169.541C97.3985 170.003 97.2441 169.976 96.5459 169.114C95.6099 167.957 95.5345 164.208 96.4126 162.522C97.1239 161.158 96.623 160.244 95.6203 161.077C94.0796 162.356 93.8772 167.129 95.2639 169.477C96.1392 170.959 97.3578 171.475 99.9862 171.475C101.17 171.475 102.242 171.64 102.367 171.843C102.492 172.046 103.117 172.326 103.755 172.467C106.366 173.04 110.012 169.806 114.686 162.767L117.154 159.051L119.749 159.271C121.176 159.392 123.192 159.492 124.229 159.493L126.115 159.496L124.937 162.691C124.29 164.448 123.551 167.019 123.296 168.404C122.895 170.581 122.923 171.115 123.505 172.341C124.18 173.765 125.512 174.694 126.424 174.379C126.788 174.253 126.748 173.958 126.271 173.23C125.323 171.782 125.8 168.928 127.933 163.289C130.316 156.988 135.833 145.838 138.802 141.319C141.831 136.71 145.524 132.717 146.039 133.494C146.239 133.797 146.603 133.921 146.846 133.77C148.333 132.851 145.797 129.924 143.567 129.984C142.871 130.003 141.852 130.156 141.303 130.324ZM158.467 132.546C159.049 134.31 158.737 135.806 157.043 139.376C155.437 142.761 152.388 146.019 148.43 148.581C146.084 150.099 141.73 152.309 141.086 152.309C140.794 152.309 143.171 147.717 145.218 144.327C148.877 138.266 152.771 133.529 155.422 131.912C157.251 130.796 157.937 130.939 158.467 132.546ZM138.115 136.53C136.038 139.275 131.476 147.608 128.603 153.901C127.652 155.985 126.667 157.817 126.413 157.974C125.973 158.246 120.113 158.006 119.036 157.673C117.928 157.329 127.665 144.254 132.293 139.87C134.269 137.997 139.52 133.942 139.968 133.942C140.026 133.942 139.192 135.107 138.115 136.53ZM108.967 155.004C108.957 157.33 105.418 164.106 102.711 166.983L101.679 168.081L101.889 165.485C102.202 161.623 103.525 158.548 105.953 156.04C108.274 153.643 108.974 153.402 108.967 155.004ZM160.131 154.567C160.533 154.93 160.861 155.627 160.861 156.114C160.861 157.046 159.669 157.5 157.219 157.5C155.422 157.5 155.838 156.041 158.056 154.563C159.267 153.757 159.237 153.757 160.131 154.567ZM197.184 154.345C197.184 154.964 194.969 156.96 194.002 157.213C192.775 157.534 193.024 156.947 194.79 155.35C196.417 153.88 197.184 153.558 197.184 154.345ZM159.456 160.195C158.729 161.335 156.893 163.05 156.371 163.075C155.845 163.1 156.05 161.302 156.674 160.411C157.215 159.638 157.967 159.315 159.61 159.151C160.026 159.11 159.99 159.356 159.456 160.195ZM72.6038 169.7C73.2683 170.367 66.5115 181.13 63.6692 183.932C61.307 186.26 59.5192 187.131 56.9715 187.196C54.3985 187.261 53.3979 186.119 53.3979 183.118C53.3979 180.358 54.7207 177.772 57.5666 174.968C59.3875 173.174 60.1659 172.672 61.1266 172.672C62.0534 172.672 62.3005 172.525 62.1281 172.077C61.8539 171.362 63.3339 170.521 66.3547 169.676C68.3229 169.125 72.0453 169.139 72.6038 169.7ZM152.481 171.375C152.484 173.938 155.398 176.661 158.141 176.664C160.165 176.666 161.547 176.071 162.909 174.613L164.064 173.376L164.893 174.43C166.624 176.631 169.633 177.276 172.29 176.014C173.045 175.656 173.915 175.001 174.226 174.557C174.781 173.764 174.813 173.772 176.215 175.003C178.76 177.238 181.962 177.249 184.25 175.03L185.589 173.732L186.581 174.804C189.24 177.674 193.924 177.161 195.988 173.774C196.425 173.058 196.782 172.248 196.783 171.974C196.786 170.991 196.012 171.5 195.335 172.926C194.378 174.943 191.714 176.148 189.605 175.516C187.828 174.983 186.903 174.027 186.207 172C185.547 170.08 185.09 170.065 184.784 171.953C184.488 173.774 183.807 174.628 182.075 175.352C179.464 176.444 176.454 174.973 175.568 172.173C174.963 170.261 174.233 170.08 174.233 171.841C174.233 174.257 170.838 176.361 168.345 175.492C166.541 174.863 164.905 173.159 164.614 171.604C164.304 169.95 163.802 169.898 163.454 171.484C162.816 174.388 159.703 176.337 157.083 175.472C155.454 174.934 153.729 173.031 153.406 171.419C153.115 169.962 152.479 169.932 152.481 171.375Z" fill="white"/>
<defs>
<linearGradient id="paint0_linear_87_7" x1="-3" y1="5.71431" x2="267.307" y2="21.8031" gradientUnits="userSpaceOnUse">
<stop stop-color="#77C0E1"/>
<stop offset="1" stop-color="#AFA8FC"/>
</linearGradient>
</defs>
</svg>
