<svg width="30" height="31" viewBox="0 0 30 31" fill="none" xmlns="http://www.w3.org/2000/svg">
<rect x="1.87506" y="3.03149" width="25.3117" height="25.3117" rx="2.05027" fill="white"/>
<path d="M19.6044 0.218994H10.3956C1.99213 0.218994 0 2.21112 0 10.6146V19.8234C0 28.2269 1.99213 30.219 10.3956 30.219H19.6044C28.0079 30.219 30 28.2269 30 19.8234V10.6146C30 2.21112 27.9882 0.218994 19.6044 0.218994ZM24.2186 21.6196H22.0409C21.2159 21.6196 20.9618 20.9652 19.4778 19.4615C18.1888 18.2119 17.6179 18.0459 17.3001 18.0459C16.851 18.0459 16.7235 18.1725 16.7235 18.7884V20.7562C16.7235 21.284 16.5576 21.6008 15.1608 21.6008C12.8508 21.6008 10.2878 20.204 8.49067 17.6016C5.78044 13.7879 5.03891 10.9315 5.03891 10.3409C5.03891 10.0231 5.16546 9.72588 5.77576 9.72588H7.95819C8.51036 9.72588 8.72035 9.97994 8.93503 10.5705C10.0141 13.6858 11.8112 16.4147 12.5527 16.4147C12.8265 16.4147 12.953 16.2882 12.953 15.5898V12.3724C12.8696 10.8883 12.0887 10.7609 12.0887 10.234C12.0887 9.97994 12.2987 9.72588 12.6352 9.72588H16.0673C16.5314 9.72588 16.702 9.97994 16.702 10.5265V14.867C16.702 15.3357 16.912 15.5016 17.0385 15.5016C17.3123 15.5016 17.5466 15.3357 18.0538 14.8276C19.6213 13.0698 20.7444 10.3596 20.7444 10.3596C20.8906 10.0418 21.1447 9.74463 21.6968 9.74463H23.8793C24.5336 9.74463 24.6799 10.0812 24.5336 10.5499C24.2599 11.8193 21.589 15.5888 21.589 15.5888C21.3593 15.9694 21.2712 16.1354 21.589 16.56C21.8234 16.8778 22.5855 17.5369 23.0927 18.1275C24.0255 19.1868 24.7427 20.0756 24.9339 20.6905C25.1486 21.3008 24.8317 21.6186 24.2158 21.6186L24.2186 21.6196Z" fill="#0077FF"/>
</svg>
