<svg width="31" height="31" viewBox="0 0 31 31" fill="none" xmlns="http://www.w3.org/2000/svg">
<rect x="0.474487" y="0.218994" width="30" height="30" rx="4.92701" fill="url(#paint0_linear_252_155)"/>
<path d="M22.5477 8.13588C20.6661 6.26087 18.1574 5.21924 15.5093 5.21924C10.0041 5.21924 5.54415 9.66368 5.54415 15.1498C5.54415 16.8859 6.03195 18.622 6.86823 20.0804L5.47449 25.2192L10.7706 23.8303C12.234 24.5942 13.8368 25.0109 15.5093 25.0109C21.0145 25.0109 25.4745 20.5665 25.4745 15.0804C25.4048 12.5109 24.4292 10.0109 22.5477 8.13588ZM20.3177 18.6914C20.1086 19.247 19.133 19.8025 18.6452 19.872C18.2271 19.9414 17.6696 19.9415 17.1121 19.8025C16.7636 19.6637 16.2758 19.5248 15.7184 19.247C13.2096 18.2054 11.6069 15.7053 11.4675 15.497C11.3282 15.3581 10.4222 14.1776 10.4222 12.9275C10.4222 11.6776 11.0494 11.122 11.2584 10.8443C11.4675 10.5664 11.7462 10.5664 11.9553 10.5664C12.0947 10.5664 12.3038 10.5664 12.4431 10.5664C12.5825 10.5664 12.7916 10.497 13.0007 10.9831C13.2096 11.4692 13.6975 12.7192 13.7672 12.7887C13.8368 12.9275 13.8368 13.0665 13.7672 13.2054C13.6975 13.3442 13.6278 13.4831 13.4885 13.622C13.349 13.7609 13.2096 13.9693 13.14 14.0386C13.0007 14.1776 12.8612 14.3165 13.0007 14.5248C13.14 14.8025 13.6278 15.5665 14.3943 16.2609C15.37 17.0943 16.1365 17.372 16.4153 17.5109C16.694 17.6498 16.8334 17.5803 16.9727 17.4415C17.1121 17.3026 17.5999 16.747 17.7393 16.4692C17.8787 16.1915 18.0877 16.2609 18.2968 16.3303C18.5059 16.3998 19.7602 17.0248 19.9693 17.1637C20.248 17.3026 20.3874 17.372 20.4571 17.4415C20.5267 17.6498 20.5267 18.1359 20.3177 18.6914Z" fill="white"/>
<defs>
<linearGradient id="paint0_linear_252_155" x1="28.9745" y1="0.218995" x2="0.474486" y2="30.219" gradientUnits="userSpaceOnUse">
<stop stop-color="#52C976"/>
<stop offset="1" stop-color="#10BD6E"/>
</linearGradient>
</defs>
</svg>
